<?xml version="1.0" encoding="iso-8859-1"?>
<!-- Generator: Adobe Illustrator 19.0.0, SVG Export Plug-In . SVG Version: 6.00 Build 0)  -->
<svg version="1.1" id="Layer_1" xmlns="http://www.w3.org/2000/svg" xmlns:xlink="http://www.w3.org/1999/xlink" x="0px" y="0px"
	 viewBox="0 0 512 512" style="enable-background:new 0 0 512 512;" xml:space="preserve">
<path style="fill:#F3C74F;" d="M81.566,325.366c-1.335,0-2.667-0.027-4.001-0.084c-19.57-0.83-48.033-8.068-72.495-37.834
	c-7.817-9.512-6.443-23.561,3.069-31.378c9.512-7.816,23.561-6.442,31.378,3.069c11.245,13.683,24.682,20.949,39.938,21.596
	c16.338,0.692,29.534-6.334,34.011-10.926c8.595-8.816,22.709-8.993,31.525-0.4c8.816,8.595,8.995,22.709,0.4,31.525
	C130.71,315.993,106.011,325.366,81.566,325.366z"/>
<path style="opacity:0.2;enable-background:new    ;" d="M144.991,269.409c-8.816-8.593-22.929-8.416-31.525,0.4
	c-4.026,4.13-15.112,10.209-29.184,10.892c3.638,15.261,9.274,29.585,16.587,42.738c17.531-3.462,33.734-11.441,44.522-22.506
	C153.987,292.117,153.807,278.004,144.991,269.409z"/>
<g>
	<path style="fill:#F3C74F;" d="M422.456,250.038c-6.672,0-12.913-0.998-18.345-3.091c-11.489-4.426-17.214-17.328-12.788-28.817
		c4.401-11.422,17.179-17.147,28.615-12.865c4.849,1.187,22.289-1.972,34.84-13.622c10.884-10.102,14.689-23.032,11.632-39.531
		c-2.243-12.106,5.752-23.738,17.858-25.982c12.107-2.249,23.738,5.752,25.982,17.857c6.175,33.325-4.098,63.036-28.927,83.66
		C464.269,241.813,441.603,250.038,422.456,250.038z M420.134,205.339c0.002,0.001,0.004,0.002,0.007,0.003
		C420.138,205.342,420.136,205.341,420.134,205.339z"/>
	<path style="fill:#F3C74F;" d="M233.392,507.842c-9.841,0-18.845-6.564-21.517-16.522c-11.244-41.906-7.869-115.68,6.688-146.182
		c5.303-11.111,18.61-15.819,29.721-10.517c11.112,5.303,15.82,18.61,10.517,29.721c-9.325,19.538-13.008,81.341-3.864,115.425
		c3.19,11.891-3.864,24.118-15.755,27.308C237.249,507.594,235.304,507.842,233.392,507.842z"/>
</g>
<path style="opacity:0.2;enable-background:new    ;" d="M248.284,334.621c-11.112-5.302-24.418-0.593-29.721,10.517
	c-6.939,14.539-11.334,38.911-12.82,64.976c13.998,5.356,28.8,8.891,44.062,10.37c0.71-23.635,4.063-45.806,8.997-56.143
	C264.103,353.23,259.395,339.923,248.284,334.621z"/>
<path style="fill:#F3C74F;" d="M390.358,463.227c-4.219,0-8.486-1.196-12.269-3.696c-10.272-6.788-13.097-20.617-6.31-30.889
	c8.547-12.937,11.275-24.196,8.337-34.419c-4.804-16.718-24.02-29.344-34.616-34.168c-11.205-5.101-16.154-18.321-11.051-29.526
	c5.101-11.206,18.319-16.155,29.526-11.052c7.887,3.591,47.799,23.476,58.994,62.432c4.581,15.941,5.872,41.254-13.99,71.314
	C404.69,459.71,397.594,463.227,390.358,463.227z"/>
<path style="opacity:0.2;enable-background:new    ;" d="M363.974,319.476c-11.208-5.104-24.426-0.154-29.526,11.052
	c-5.102,11.205-0.154,24.425,11.051,29.526c7.972,3.629,20.819,11.674,28.742,22.554c11.663-9.604,21.95-20.692,30.62-32.917
	C389.064,331.691,369.279,321.891,363.974,319.476z"/>
<circle style="fill:#0081C6;" cx="368.235" cy="61.14" r="53.974"/>
<circle style="fill:#F3C74F;" cx="368.235" cy="61.14" r="25.197"/>
<circle style="fill:#0081C6;" cx="112.049" cy="107.465" r="53.974"/>
<circle style="fill:#F3C74F;" cx="112.049" cy="107.465" r="25.197"/>
<path style="opacity:0.2;enable-background:new    ;" d="M135.703,58.958c-20.889,27.081-36.45,61.976-45.498,97.854
	c9.539,4.234,20.405,5.753,31.45,3.756c29.33-5.303,48.808-33.38,43.504-62.71C161.98,80.277,150.613,66.243,135.703,58.958z"/>
<path style="fill:#40BAB3;" d="M433.337,199.759C416.723,107.875,316.187-10.642,225.925,5.678S82.995,168.219,99.61,260.103
	S204.4,412.965,296.556,396.301C388.712,379.638,449.951,291.643,433.337,199.759z"/>
<g>
	<path style="fill:#F0B0B7;" d="M276.016,189.353c-9.027,1.632-17.668-4.362-19.3-13.39c1.632,9.027-4.362,17.668-13.39,19.3
		c-1.572,0.284-3.131,0.332-4.645,0.179l0.849,4.691c2.084,11.528,13.12,19.184,24.648,17.1s19.184-13.12,17.1-24.648l-0.849-4.691
		C279.065,188.568,277.587,189.069,276.016,189.353z"/>
	<path style="fill:#F0B0B7;" d="M151.678,238.793c-3.901,0-7.363-2.787-8.082-6.761c-0.808-4.469,2.16-8.747,6.629-9.555
		l27.856-5.037c4.472-0.807,8.747,2.16,9.555,6.629s-2.16,8.747-6.629,9.555l-27.856,5.037
		C152.656,238.75,152.164,238.793,151.678,238.793z"/>
	<path style="fill:#F0B0B7;" d="M346.348,203.593c-3.901,0-7.363-2.787-8.081-6.761c-0.808-4.469,2.16-8.747,6.629-9.555
		l27.856-5.037c4.472-0.806,8.747,2.16,9.555,6.629s-2.16,8.747-6.629,9.555l-27.856,5.037
		C347.326,203.55,346.833,203.593,346.348,203.593z"/>
</g>
<path style="fill:#FFFFFF;" d="M107.938,290.108c28.353,74.71,106.917,120.967,188.619,106.194
	c81.702-14.773,139.093-85.613,139.488-165.522L107.938,290.108z"/>
<path style="fill:#0081C6;" d="M149.759,352.695c37.819,35.7,91.589,53.589,146.797,43.607
	c55.208-9.982,99.309-45.569,122.232-92.251L149.759,352.695z"/>
<path style="opacity:0.2;enable-background:new    ;" d="M311.051,375.408c-92.157,16.664-180.333-44.315-196.947-136.199
	c-10.002-55.317,5.115-130.317,38.42-184.821c-43.256,54.743-64.27,142.915-52.915,205.714
	c16.614,91.884,104.79,152.862,196.947,136.199c50.668-9.162,91.985-39.89,116.16-80.968
	C388.029,345.775,352.699,367.877,311.051,375.408z"/>
<g>
	<path style="fill:#394049;" d="M260.39,225.799c-13.957,0-26.382-9.991-28.952-24.2l-0.847-4.692
		c-0.808-4.469,2.161-8.747,6.629-9.554c4.475-0.807,8.747,2.161,9.554,6.629l0.847,4.692c1.275,7.047,8.043,11.743,15.094,10.47
		c7.047-1.274,11.745-8.045,10.471-15.094l-0.849-4.691c-0.808-4.469,2.16-8.747,6.629-9.555c4.468-0.805,8.747,2.16,9.555,6.629
		l0.849,4.692c2.887,15.972-7.757,31.314-23.729,34.202C263.878,225.644,262.121,225.799,260.39,225.799z"/>
	<path style="fill:#394049;" d="M240.318,203.76c-5.011,0-9.897-1.518-14.101-4.436c-5.45-3.78-9.102-9.457-10.282-15.985
		c-0.808-4.469,2.16-8.747,6.629-9.555c4.47-0.808,8.748,2.16,9.555,6.629c0.398,2.205,1.631,4.122,3.472,5.398
		s4.069,1.76,6.273,1.362c2.205-0.399,4.122-1.631,5.398-3.473c1.277-1.841,1.761-4.068,1.362-6.272
		c-0.089-0.493-0.133-0.983-0.133-1.468c-0.002-3.903,2.785-7.368,6.761-8.087c4.469-0.808,8.747,2.159,9.555,6.628
		c0.823,4.551,5.195,7.587,9.746,6.761c4.551-0.822,7.583-5.195,6.761-9.747c-0.808-4.469,2.16-8.746,6.629-9.554
		c4.467-0.806,8.747,2.16,9.554,6.629c2.436,13.474-6.544,26.418-20.018,28.854c-6.272,1.134-12.434-0.207-17.472-3.324
		c-3.762,4.87-9.118,8.132-15.219,9.235C243.297,203.626,241.802,203.76,240.318,203.76z"/>
	<path style="fill:#394049;" d="M147.532,200.014c-3.901,0-7.363-2.787-8.082-6.761c-0.93-5.141,0.198-10.335,3.176-14.628
		c2.978-4.292,7.449-7.168,12.59-8.098c5.141-0.931,10.335,0.198,14.628,3.176s7.168,7.449,8.098,12.59
		c0.808,4.469-2.16,8.747-6.629,9.555c-4.462,0.807-8.746-2.16-9.555-6.629c-0.2-1.104-0.892-1.729-1.288-2.003
		s-1.224-0.708-2.328-0.505c-1.104,0.2-1.729,0.892-2.003,1.288c-0.275,0.396-0.705,1.225-0.505,2.328
		c0.808,4.469-2.16,8.747-6.629,9.555C148.511,199.971,148.017,200.014,147.532,200.014z"/>
	<path style="fill:#394049;" d="M342.201,164.815c-3.901,0-7.363-2.787-8.082-6.761c-0.93-5.14,0.198-10.335,3.176-14.628
		c2.978-4.292,7.449-7.168,12.59-8.098s10.335,0.2,14.628,3.176c4.292,2.978,7.168,7.449,8.098,12.589
		c0.808,4.469-2.16,8.746-6.629,9.555c-4.462,0.808-8.747-2.159-9.555-6.629c-0.2-1.104-0.892-1.729-1.288-2.003
		c-0.396-0.274-1.224-0.707-2.328-0.505c-1.104,0.2-1.729,0.892-2.003,1.288c-0.274,0.396-0.705,1.224-0.505,2.328
		c0.808,4.469-2.16,8.746-6.629,9.555C343.18,164.771,342.687,164.815,342.201,164.815z"/>
</g>
<g>
</g>
<g>
</g>
<g>
</g>
<g>
</g>
<g>
</g>
<g>
</g>
<g>
</g>
<g>
</g>
<g>
</g>
<g>
</g>
<g>
</g>
<g>
</g>
<g>
</g>
<g>
</g>
<g>
</g>
</svg>
