<?xml version="1.0" encoding="iso-8859-1"?>
<!-- Generator: Adobe Illustrator 19.0.0, SVG Export Plug-In . SVG Version: 6.00 Build 0)  -->
<svg version="1.1" id="Layer_1" xmlns="http://www.w3.org/2000/svg" xmlns:xlink="http://www.w3.org/1999/xlink" x="0px" y="0px"
	 viewBox="0 0 512 512" style="enable-background:new 0 0 512 512;" xml:space="preserve">
<path style="fill:#F3C74F;" d="M96.923,429.461c-13.864,0-25.102-11.239-25.102-25.102V283.211
	c0-13.864,11.239-25.102,25.102-25.102s25.102,11.239,25.102,25.102v121.15C122.025,418.223,110.787,429.461,96.923,429.461z"/>
<path style="opacity:0.2;enable-background:new    ;" d="M96.923,258.109c-13.864,0-25.102,11.239-25.102,25.102v15.346
	c8.945,32.129,26.57,60.654,50.204,82.91v-98.256C122.025,269.346,110.787,258.109,96.923,258.109z"/>
<g>
	<path style="fill:#F3C74F;" d="M415.075,429.461c-13.864,0-25.102-11.239-25.102-25.102V283.211
		c0-13.864,11.239-25.102,25.102-25.102s25.102,11.239,25.102,25.102v121.15C440.176,418.223,428.938,429.461,415.075,429.461z"/>
	<path style="fill:#F3C74F;" d="M309.968,512c-13.864,0-25.102-11.239-25.102-25.102v-95.056c0-13.864,11.239-25.102,25.102-25.102
		s25.102,11.239,25.102,25.102v95.056C335.071,500.761,323.832,512,309.968,512z"/>
</g>
<path style="opacity:0.2;enable-background:new    ;" d="M309.968,366.741c-13.864,0-25.102,11.239-25.102,25.102v52.646
	c17.725-2.83,34.591-8.219,50.204-15.783v-36.863C335.071,377.978,323.832,366.741,309.968,366.741z"/>
<path style="fill:#F3C74F;" d="M202.029,512c-13.864,0-25.102-11.239-25.102-25.102v-95.056c0-13.864,11.239-25.102,25.102-25.102
	s25.102,11.239,25.102,25.102v95.056C227.132,500.761,215.893,512,202.029,512z"/>
<path style="opacity:0.2;enable-background:new    ;" d="M202.029,366.741c-13.864,0-25.102,11.239-25.102,25.102v36.863
	c15.613,7.564,32.48,12.953,50.204,15.783v-52.646C227.132,377.978,215.893,366.741,202.029,366.741z"/>
<circle style="fill:#0081C6;" cx="101.672" cy="112.265" r="57.653"/>
<circle style="fill:#F3C74F;" cx="101.672" cy="112.265" r="26.917"/>
<path style="opacity:0.2;enable-background:new    ;" d="M127.892,60.929c-24.29,28.6-43.907,64.297-56.429,100.445
	c8.786,5.417,19.131,8.549,30.21,8.549c31.841,0,57.653-25.812,57.653-57.653C159.326,89.873,146.548,70.476,127.892,60.929z"/>
<circle style="fill:#0081C6;" cx="410.328" cy="112.265" r="57.653"/>
<circle style="fill:#F3C74F;" cx="410.328" cy="112.265" r="26.917"/>
<path style="fill:#40BAB3;" d="M437.147,243.45C437.147,143.7,353.988,0,255.999,0S74.851,143.7,74.851,243.45
	c0,99.749,81.103,180.613,181.148,180.613S437.147,343.199,437.147,243.45z"/>
<g>
	<path style="fill:#0081C6;" d="M163.673,242.439H136.99c-4.524,0-8.19-3.667-8.19-8.19s3.666-8.19,8.19-8.19h26.683
		c4.524,0,8.19,3.667,8.19,8.19S168.197,242.439,163.673,242.439z"/>
	<path style="fill:#0081C6;" d="M375.007,242.439h-26.683c-4.524,0-8.19-3.667-8.19-8.19s3.666-8.19,8.19-8.19h26.683
		c4.523,0,8.19,3.667,8.19,8.19S379.531,242.439,375.007,242.439z"/>
</g>
<path style="fill:#FFFFFF;" d="M77.902,276.575c15.605,83.928,89.402,147.488,178.097,147.488s162.493-63.56,178.097-147.488
	L77.902,276.575L77.902,276.575z"/>
<path style="fill:#0081C6;" d="M109.97,350.319c32.97,44.717,86.095,73.744,146.029,73.744s113.059-29.027,146.029-73.744H109.97z"
	/>
<path style="opacity:0.2;enable-background:new    ;" d="M275.208,404.853c-100.045,0-181.148-80.862-181.148-180.613
	c0-60.053,30.148-136.021,75.518-186.988C113.701,86.579,74.85,175.273,74.85,243.449c0,99.749,81.103,180.613,181.148,180.613
	c55.006,0,104.28-24.449,137.502-63.037C361.763,388.336,320.421,404.853,275.208,404.853z"/>
<g>
	<path style="fill:#394049;" d="M290.882,249.403c-4.524,0-8.19-3.667-8.19-8.19c0-14.719-11.975-26.693-26.693-26.693
		s-26.693,11.975-26.693,26.693c0,4.523-3.666,8.19-8.19,8.19c-4.524,0-8.19-3.667-8.19-8.19c0-23.75,19.322-43.073,43.073-43.073
		s43.073,19.322,43.073,43.073C299.072,245.737,295.406,249.403,290.882,249.403z"/>
	<path style="fill:#394049;" d="M150.331,208.223c-14.467,0-26.238-11.77-26.238-26.238c0-4.523,3.666-8.19,8.19-8.19
		c4.524,0,8.19,3.667,8.19,8.19c0,5.436,4.422,9.858,9.858,9.858c5.436,0,9.858-4.422,9.858-9.858c0-4.523,3.666-8.19,8.19-8.19
		c4.524,0,8.19,3.667,8.19,8.19C176.57,196.453,164.799,208.223,150.331,208.223z"/>
	<path style="fill:#394049;" d="M361.667,208.223c-14.467,0-26.238-11.77-26.238-26.238c0-4.523,3.666-8.19,8.19-8.19
		c4.523,0,8.19,3.667,8.19,8.19c0,5.436,4.422,9.858,9.858,9.858c5.436,0,9.858-4.422,9.858-9.858c0-4.523,3.666-8.19,8.19-8.19
		c4.524,0,8.19,3.667,8.19,8.19C387.904,196.453,376.134,208.223,361.667,208.223z"/>
</g>
<g>
</g>
<g>
</g>
<g>
</g>
<g>
</g>
<g>
</g>
<g>
</g>
<g>
</g>
<g>
</g>
<g>
</g>
<g>
</g>
<g>
</g>
<g>
</g>
<g>
</g>
<g>
</g>
<g>
</g>
</svg>
