<?xml version="1.0" encoding="iso-8859-1"?>
<!-- Generator: Adobe Illustrator 19.0.0, SVG Export Plug-In . SVG Version: 6.00 Build 0)  -->
<svg version="1.1" id="Layer_1" xmlns="http://www.w3.org/2000/svg" xmlns:xlink="http://www.w3.org/1999/xlink" x="0px" y="0px"
	 viewBox="0 0 512 512" style="enable-background:new 0 0 512 512;" xml:space="preserve">
<circle style="fill:#0081C6;" cx="376.283" cy="139.699" r="49.869"/>
<circle style="fill:#F3C74F;" cx="376.283" cy="139.699" r="23.283"/>
<circle style="fill:#0081C6;" cx="135.717" cy="139.699" r="49.869"/>
<circle style="fill:#F3C74F;" cx="135.717" cy="139.699" r="23.283"/>
<path style="opacity:0.2;enable-background:new    ;" d="M165.2,99.478c-23.447,21.191-43.334,50.363-57.46,81.499
	c7.978,5.418,17.609,8.587,27.98,8.587c27.543,0,49.869-22.328,49.869-49.869C185.589,123.184,177.561,108.554,165.2,99.478z"/>
<path style="fill:#40BAB3;" d="M412.692,276.447c0-86.283-71.932-210.583-156.692-210.583S99.308,190.165,99.308,276.447
	S169.461,432.677,256,432.677S412.692,362.73,412.692,276.447z"/>
<g>
	<path style="fill:#892641;" d="M177.677,258.379H151.52c-4.519,0-8.181-3.662-8.181-8.181c0-4.519,3.662-8.181,8.181-8.181h26.157
		c4.519,0,8.181,3.662,8.181,8.181C185.858,254.717,182.196,258.379,177.677,258.379z"/>
	<path style="fill:#892641;" d="M360.48,258.379h-26.157c-4.518,0-8.181-3.662-8.181-8.181c0-4.519,3.663-8.181,8.181-8.181h26.157
		c4.519,0,8.181,3.662,8.181,8.181C368.661,254.717,364.999,258.379,360.48,258.379z"/>
</g>
<path style="fill:#FFFFFF;" d="M101.946,305.1C115.445,377.697,179.279,432.677,256,432.677s140.555-54.98,154.054-127.577H101.946z
	"/>
<path style="fill:#0081C6;" d="M129.685,368.888c28.519,38.68,74.472,63.788,126.315,63.788s97.796-25.108,126.315-63.788H129.685z"
	/>
<path style="opacity:0.2;enable-background:new    ;" d="M272.615,416.061c-86.539,0-156.692-69.947-156.692-156.229
	c0-43.282,18.115-96.113,46.856-138.035c6.411,2.583,13.615,4.038,21.237,4.038c9.695,0,18.716-2.356,26.282-6.396
	c13.155,4.04,28.842,6.396,45.702,6.396c16.859,0,32.546-2.356,45.701-6.396c7.566,4.04,16.586,6.396,26.282,6.396
	c8.87,0,17.176-1.974,24.32-5.404C325.497,88.166,291.9,65.864,256,65.864c-84.761,0-156.692,124.3-156.692,210.583
	c0,86.282,70.154,156.229,156.692,156.229c47.58,0,90.202-21.148,118.939-54.527C347.485,401.772,311.725,416.061,272.615,416.061z"
	/>
<path style="opacity:0.2;enable-background:new    ;" d="M410.854,251.388c-51.364,16.477-168.92,62.678-217.148,168.445
	c19.093,8.257,40.155,12.845,62.293,12.845c86.539,0,156.692-69.947,156.692-156.229
	C412.692,268.383,412.063,259.985,410.854,251.388z"/>
<path style="fill:#C7E2EC;" d="M329.591,143.88c-10.043-5.798-22.884-2.357-28.682,7.686c-4.039,6.996-3.583,15.344,0.453,21.73
	l-30.419,52.688c6.162,3.807,10.765,9.894,12.626,17.087l34.661-60.035c7.548,0.303,15.006-3.476,19.045-10.473
	C343.074,162.519,339.634,149.679,329.591,143.88z"/>
<path style="opacity:0.4;fill:#FFFFFF;enable-background:new    ;" d="M329.591,143.88c-2.615-1.51-5.42-2.379-8.241-2.683
	c-4.692,2.338-7.922,7.169-7.922,12.766c0,7.88,6.388,14.269,14.269,14.269c5.286,0,9.889-2.881,12.354-7.152
	C339.721,154.182,336.016,147.589,329.591,143.88z"/>
<path style="fill:#892641;" d="M289.661,193.561l-18.718,32.421c6.162,3.807,10.765,9.894,12.626,17.087l22.96-39.768
	L289.661,193.561z"/>
<g>
	<path style="fill:#394049;" d="M169.337,222.156h-9.477c-4.519,0-8.181-3.662-8.181-8.181s3.662-8.181,8.181-8.181h9.477
		c4.519,0,8.181,3.662,8.181,8.181S173.855,222.156,169.337,222.156z"/>
	<path style="fill:#394049;" d="M352.14,222.156h-9.477c-4.519,0-8.181-3.662-8.181-8.181s3.662-8.181,8.181-8.181h9.477
		c4.519,0,8.181,3.662,8.181,8.181S356.658,222.156,352.14,222.156z"/>
	<path style="fill:#394049;" d="M284.476,258.404c-4.519,0-8.181-3.662-8.181-8.181c0-11.192-9.105-20.295-20.295-20.295
		c-11.192,0-20.295,9.105-20.295,20.295c0,4.519-3.662,8.181-8.181,8.181c-4.519,0-8.181-3.662-8.181-8.181
		c0-20.213,16.445-36.657,36.657-36.657s36.657,16.445,36.657,36.657C292.657,254.741,288.996,258.404,284.476,258.404z"/>
	<circle style="fill:#394049;" cx="256" cy="18.609" r="18.609"/>
</g>
<path style="fill:#C7E2EC;" d="M327.983,33.417c-7.381,0-14.373,1.366-20.63,3.799c-14.2-6.657-32.005-11.012-51.353-11.012
	s-37.153,4.354-51.353,11.012c-6.257-2.434-13.249-3.799-20.63-3.799c-26.674,0-48.297,17.767-48.297,39.684
	s21.624,39.684,48.297,39.684c9.696,0,18.716-2.356,26.282-6.398c13.155,4.041,28.842,6.398,45.701,6.398
	c16.859,0,32.546-2.356,45.701-6.398c7.566,4.041,16.586,6.398,26.282,6.398c26.674,0,48.297-17.767,48.297-39.684
	S354.656,33.417,327.983,33.417z"/>
<g>
	<path style="opacity:0.4;fill:#FFFFFF;enable-background:new    ;" d="M327.983,33.417c-2.436,0-4.824,0.163-7.161,0.449
		c-0.84,2.932-1.299,6.026-1.299,9.228c0,18.487,14.987,33.474,33.474,33.474c8.815,0,16.83-3.413,22.808-8.983
		C372.537,48.281,352.378,33.417,327.983,33.417z"/>
	<path style="opacity:0.2;fill:#FFFFFF;enable-background:new    ;" d="M256,26.203c-1.731,0-3.446,0.047-5.151,0.116
		c-0.316,1.598-0.485,3.249-0.485,4.94c0,13.987,11.339,25.326,25.326,25.326c12.914,0,23.562-9.668,25.122-22.16
		C287.842,29.373,272.485,26.203,256,26.203z"/>
</g>
<path style="opacity:0.1;enable-background:new    ;" d="M337.043,103.272c-7.689,0-14.958-1.468-21.423-4.076
	c-3.564-1.437-7.508-1.611-11.232-0.666c-11.916,3.023-25.53,4.743-40.001,4.743c-15.346,0-29.73-1.934-42.144-5.305
	c-2.438-0.662-5.037-0.538-7.345,0.49c-6.891,3.067-14.779,4.815-23.168,4.815c-26.924,0-48.75-17.934-48.75-40.055
	c0-5.403,1.31-10.552,3.669-15.255c-6.828,6.845-10.93,15.597-10.93,25.139c0,21.916,21.624,39.684,48.297,39.684
	c9.696,0,18.716-2.356,26.282-6.398c13.155,4.041,28.842,6.398,45.701,6.398c16.859,0,32.546-2.356,45.702-6.398
	c7.565,4.041,16.586,6.398,26.282,6.398c17.943,0,33.588-8.046,41.916-19.979C361.233,99.305,349.702,103.272,337.043,103.272z"/>
<path style="fill:#8E78CF;" d="M333.537,512c-9.976-167.348-191.067-240.182-238.446-263.534c-10.346-5.1-22.683,1.36-24.359,12.773
	C64.397,304.387,57.468,403.9,56.89,499.311C56.847,506.306,62.505,512,69.501,512H333.537z"/>
<path style="opacity:0.2;enable-background:new    ;" d="M245.957,341.256C200.843,382.217,162.8,437.821,158.377,512h175.16
	C329.115,437.821,291.071,382.215,245.957,341.256z"/>
<path style="fill:#8E78CF;" d="M178.463,512c9.976-167.348,191.067-240.182,238.446-263.534c10.346-5.1,22.683,1.36,24.359,12.773
	c6.336,43.148,13.265,142.66,13.843,238.072C455.153,506.306,449.495,512,442.5,512H178.463z"/>
<g style="opacity:0.1;">
	<path d="M266.596,417.105c-1.522,0-3.06-0.424-4.433-1.31c-3.795-2.452-4.884-7.517-2.431-11.312l15.628-24.189
		c2.453-3.795,7.517-4.881,11.312-2.431c3.794,2.452,4.883,7.517,2.431,11.312l-15.628,24.189
		C271.909,415.785,269.281,417.105,266.596,417.105z"/>
	<path d="M369.893,367.318c-1.68,0-3.375-0.516-4.833-1.586L347.3,352.706c-3.643-2.672-4.43-7.794-1.757-11.436
		c2.672-3.644,7.795-4.432,11.436-1.756l17.759,13.026c3.643,2.672,4.429,7.794,1.757,11.436
		C374.893,366.161,372.409,367.318,369.893,367.318z"/>
	<path d="M376.879,485.335c-2.137,0-4.269-0.831-5.874-2.486c-3.146-3.244-3.066-8.423,0.178-11.568l23.884-23.16
		c3.244-3.148,8.424-3.065,11.567,0.178c3.146,3.244,3.066,8.423-0.178,11.567l-23.884,23.16
		C380.985,484.569,378.93,485.335,376.879,485.335z"/>
	<path d="M246.321,482.803c-2.073,0-4.144-0.782-5.737-2.349l-18.396-18.094c-3.221-3.168-3.265-8.347-0.096-11.568
		c3.169-3.223,8.35-3.263,11.568-0.096l18.396,18.094c3.221,3.168,3.265,8.347,0.096,11.568
		C250.553,481.987,248.436,482.803,246.321,482.803z"/>
	<path d="M392.426,397.703c-1.831,0-3.674-0.611-5.198-1.867c-3.487-2.873-3.986-8.028-1.114-11.516l20.263-24.594
		c2.872-3.487,8.029-3.985,11.516-1.113c3.487,2.873,3.986,8.028,1.114,11.516l-20.263,24.594
		C397.128,396.687,394.786,397.703,392.426,397.703z"/>
	<path d="M382.307,319.551c-1.605,0-3.225-0.471-4.646-1.453c-3.716-2.569-4.646-7.665-2.076-11.383l13.012-18.819
		c2.569-3.715,7.664-4.648,11.382-2.076c3.716,2.569,4.646,7.665,2.076,11.383l-13.012,18.819
		C387.456,318.319,384.903,319.551,382.307,319.551z"/>
	<path d="M313.435,477.332c-2.911,0-5.729-1.557-7.207-4.298l-12.916-23.944c-2.146-3.976-0.66-8.939,3.316-11.084
		c3.976-2.147,8.938-0.66,11.084,3.316l12.916,23.944c2.146,3.977,0.66,8.939-3.316,11.084
		C316.077,477.017,314.746,477.332,313.435,477.332z"/>
	<path d="M347.398,429.099c-1.021,0-2.061-0.193-3.065-0.6l-20.17-8.162c-4.189-1.695-6.209-6.464-4.515-10.653
		c1.695-4.188,6.463-6.21,10.653-4.515l20.17,8.162c4.189,1.695,6.209,6.464,4.515,10.653
		C353.696,427.168,350.634,429.099,347.398,429.099z"/>
</g>
<g style="opacity:0.1;">
	<path d="M121.738,342.018c-1.958,0-3.921-0.698-5.487-2.114l-22.432-20.298c-3.35-3.031-3.609-8.205-0.577-11.556
		c3.032-3.35,8.205-3.608,11.556-0.577l22.432,20.298c3.35,3.031,3.609,8.205,0.577,11.556
		C126.191,341.111,123.968,342.018,121.738,342.018z"/>
	<path d="M159.006,368.768c-3.179,0-6.202-1.863-7.529-4.972c-1.774-4.156,0.158-8.962,4.313-10.737l26.587-11.348
		c4.161-1.77,8.963,0.158,10.737,4.313c1.774,4.156-0.158,8.962-4.313,10.737l-26.587,11.348
		C161.165,368.555,160.076,368.768,159.006,368.768z"/>
	<path d="M117.405,473.757c-2.645,0-5.241-1.281-6.816-3.648l-15.451-23.202c-2.504-3.761-1.486-8.84,2.274-11.343
		c3.762-2.507,8.84-1.486,11.343,2.274l15.451,23.202c2.504,3.761,1.486,8.84-2.274,11.343
		C120.538,473.313,118.963,473.757,117.405,473.757z"/>
	<path d="M146.591,429.216c-3.138,0-6.13-1.815-7.484-4.869c-1.83-4.13,0.035-8.963,4.166-10.795l26.943-11.938
		c4.129-1.837,8.963,0.033,10.795,4.165c1.83,4.13-0.035,8.963-4.166,10.793l-26.943,11.938
		C148.823,428.99,147.698,429.216,146.591,429.216z"/>
	<path d="M94.235,405.009c-2.054,0-4.109-0.768-5.698-2.311c-3.242-3.148-3.318-8.327-0.17-11.568l22.542-23.215
		c3.148-3.243,8.328-3.317,11.568-0.17c3.242,3.148,3.318,8.327,0.17,11.568l-22.541,23.215
		C98.501,404.179,96.369,405.009,94.235,405.009z"/>
</g>
<g>
</g>
<g>
</g>
<g>
</g>
<g>
</g>
<g>
</g>
<g>
</g>
<g>
</g>
<g>
</g>
<g>
</g>
<g>
</g>
<g>
</g>
<g>
</g>
<g>
</g>
<g>
</g>
<g>
</g>
</svg>
